# xmcd
#
# Track frame offsets:
#	150
#	16260
#	31002
#	46876
#	62589
#	78265
#	93367
#	111890
#	127846
#	146318
#
# Disc length: 2165 seconds
#
# Revision: 0
# Processed by: cddbd v1.5.1PL0 Copyright (c) Steve Scherf et al.
# Submitted via: dBpowerAMP V4.0
#
DISCID=6c08730a
DTITLE=Rick Tippe - Stampede Strut
DYEAR=1999
DGENRE=Country
TTITLE0=Stampede Strut
TTITLE1=Mad Love
TTITLE2=Giddy Up
TTITLE3=I'll Tell You What
TTITLE4=Turbo Twang
TTITLE5=I Say, You Say
TTITLE6=Shiver n'Shake
TTITLE7=Hollywood Heart
TTITLE8=Party Down
TTITLE9=Stampede Strut (Get The Point Mix)
EXTD=
EXTT0=
EXTT1=
EXTT2=
EXTT3=
EXTT4=
EXTT5=
EXTT6=
EXTT7=
EXTT8=
EXTT9=
PLAYORDER=
